<svg width="18" height="19" viewBox="0 0 18 19" fill="none" xmlns="http://www.w3.org/2000/svg">
<path fill-rule="evenodd" clip-rule="evenodd" d="M11.9175 6.44971C11.077 6.44971 10.3956 7.1311 10.3956 7.97163V10.23H7.19216C6.35163 10.23 5.67024 10.9114 5.67024 11.7519V14.0099H2.46699C1.62646 14.0099 0.945068 14.6913 0.945068 15.5319V16.8451H5.67024V16.8454H15.1207V16.8453H15.1209V7.97163C15.1209 7.1311 14.4395 6.44971 13.5989 6.44971H11.9175Z" fill="#465969"/>
<rect y="17.3176" width="16.0659" height="0.94505" rx="0.472525" fill="#465969"/>
<path d="M12.6401 0.779541H13.3489V5.97732H12.6401V0.779541Z" fill="#00CA69"/>
<path d="M12.6101 0.16482C12.6101 0.047963 12.7373 -0.0283734 12.8425 0.02266C13.2589 0.224842 14.1749 0.611353 15.0909 0.611353C15.9323 0.611353 16.7738 0.28517 17.228 0.0753557C17.3533 0.0174771 17.4987 0.138815 17.4581 0.270703L16.8822 2.13753C16.8699 2.17766 16.8746 2.22113 16.8954 2.25763L17.4965 3.31448C17.538 3.38743 17.5128 3.4794 17.4381 3.51749C17.0855 3.69708 16.0882 4.15529 15.0909 4.15529C14.0335 4.15529 12.9762 3.64025 12.6872 3.48825C12.6388 3.46283 12.6101 3.4128 12.6101 3.35818V0.16482Z" fill="#00CA69"/>
</svg>
