<svg width="28" height="28" viewBox="0 0 28 28" fill="none" xmlns="http://www.w3.org/2000/svg">
<path fill-rule="evenodd" clip-rule="evenodd" d="M13 7C15.2816 7.46373 17 9.58146 17 12V16C18.1046 16 19 16.8954 19 18V23H14C14 24.1046 13.1046 25 12 25C10.8954 25 10 24.1046 10 23H5V18C5 16.8954 5.89543 16 7 16V12C7 9.58111 8.71785 7.46334 11 7H13ZM12 9C10.4023 9 9.09634 10.2489 9.00509 11.8237L9 12V16C9 17.1046 8.10457 18 7 18V21H17V18C15.8954 18 15 17.1046 15 16V12C15 10.3431 13.6569 9 12 9Z" fill="#7E84A3"/>
<rect x="12" width="16" height="16" rx="8" fill="#019B64"/>
<path d="M19.8949 12.1193C21.8381 12.1193 23.1591 10.8537 23.1548 9.08949C23.1591 7.41903 21.9915 6.21733 20.419 6.21733C19.652 6.21733 18.9915 6.53693 18.6847 6.96733H18.6335L18.8594 4.78125H22.6733V3.27273H17.3381L16.9247 7.875L18.5653 8.16903C18.8338 7.80682 19.3537 7.58097 19.8693 7.58097C20.7472 7.58523 21.3778 8.22017 21.3778 9.13636C21.3778 10.044 20.7599 10.6705 19.8949 10.6705C19.1619 10.6705 18.5696 10.2102 18.527 9.53267H16.7372C16.7713 11.0412 18.0881 12.1193 19.8949 12.1193Z" fill="white"/>
</svg>
