<svg width="18" height="18" viewBox="0 0 18 18" fill="none" xmlns="http://www.w3.org/2000/svg">
<path d="M13.9422 17C13.8001 17.0005 13.6599 16.967 13.5333 16.9022L9.00002 14.5289L4.46668 16.9022C4.16636 17.0601 3.80232 17.0333 3.5284 16.833C3.25447 16.6328 3.11844 16.2941 3.17779 15.96L4.06668 10.9555L0.40446 7.39996C0.171621 7.16761 0.0861348 6.82567 0.182238 6.51108C0.287343 6.18878 0.566613 5.95433 0.902238 5.90663L5.9689 5.16885L8.20002 0.608853C8.34854 0.302195 8.65928 0.107422 9.00002 0.107422C9.34075 0.107422 9.65149 0.302195 9.80002 0.608853L12.0578 5.15996L17.1245 5.89774C17.4601 5.94545 17.7394 6.17989 17.8445 6.50219C17.9406 6.81678 17.8551 7.15872 17.6222 7.39108L13.96 10.9466L14.8489 15.9511C14.9137 16.2913 14.7749 16.6383 14.4934 16.84C14.3324 16.9528 14.1386 17.009 13.9422 17Z" fill="#66D70E"/>
</svg>
